<?xml version="1.0" encoding="utf-8"?>
<!-- Generator: Adobe Illustrator 15.1.0, SVG Export Plug-In . SVG Version: 6.00 Build 0)  -->
<!DOCTYPE svg PUBLIC "-//W3C//DTD SVG 1.1//EN" "http://www.w3.org/Graphics/SVG/1.1/DTD/svg11.dtd">
<svg version="1.1" id="Layer_1" xmlns="http://www.w3.org/2000/svg" xmlns:xlink="http://www.w3.org/1999/xlink" x="0px" y="0px"
	 width="14px" height="20px" viewBox="0 0 14 20" enable-background="new 0 0 14 20" xml:space="preserve">
<path fill="#4F4F4F" d="M7,4.231c-3.154,0-5.52,2.471-5.52,5.519C1.48,16.002,7,20,7,20s5.52-3.998,5.52-10.25
	C12.52,6.702,10.153,4.231,7,4.231z M7.131,11.889C7.086,11.889,7,11.878,7,11.875c0,0.003-0.086,0.014-0.131,0.014
	c-1.116,0-2.021-0.829-2.021-1.944C4.849,8.828,5.753,8,6.869,8c0.045,0,0.218,0,0.263,0c1.115,0,2.02,0.828,2.02,1.944
	C9.151,11.06,8.246,11.889,7.131,11.889z"/>
</svg>
