<?xml version="1.0" encoding="utf-8"?>
<!-- Generator: Adobe Illustrator 15.1.0, SVG Export Plug-In . SVG Version: 6.00 Build 0)  -->
<!DOCTYPE svg PUBLIC "-//W3C//DTD SVG 1.1//EN" "http://www.w3.org/Graphics/SVG/1.1/DTD/svg11.dtd">
<svg version="1.1" id="Layer_1" xmlns="http://www.w3.org/2000/svg" xmlns:xlink="http://www.w3.org/1999/xlink" x="0px" y="0px"
	 width="17px" height="17px" viewBox="3.5 37.5 17 17" enable-background="new 3.5 37.5 17 17" xml:space="preserve">
<path fill="#EB5757" d="M15.649,48.191h-0.768l-0.272-0.262c0.953-1.108,1.526-2.548,1.526-4.112c0-3.489-2.829-6.317-6.318-6.317
	c-3.489,0-6.318,2.828-6.318,6.317s2.829,6.318,6.318,6.318c1.564,0,3.003-0.573,4.112-1.526l0.262,0.272v0.768l4.86,4.851
	l1.448-1.448L15.649,48.191z M9.818,48.191c-2.42,0-4.374-1.953-4.374-4.374c0-2.42,1.954-4.373,4.374-4.373
	s4.374,1.953,4.374,4.373C14.191,46.238,12.238,48.191,9.818,48.191z"/>
</svg>
